<?xml version="1.0" encoding="UTF-8"?>
<svg id="Camada_1" data-name="Camada 1" xmlns="http://www.w3.org/2000/svg" version="1.1" viewBox="0 0 5000 898.77">
  <defs>
    <style>
      .cls-1 {
        fill: #fff;
        stroke-width: 0px;
      }
    </style>
  </defs>
  <path class="cls-1" d="M572.77,754.4l-19.21-582.7c-.57-17.68-15.06-31.72-32.75-31.72h-234.09c-17.1,0-31.32,13.15-32.67,30.19l-40.76,501.17c-1.13,14.29,10.17,26.51,24.5,26.51h83.99c13.16,0,23.99-10.37,24.55-23.52l9.32-199.52c.11-2.63,2.28-4.7,4.91-4.7h73.89c2.71,0,4.92,2.2,4.92,4.92v280.16c0,13.57,11,24.58,24.58,24.58h84.25c13.88,0,25.01-11.49,24.56-25.36ZM417.16,354.37h-28.98c-5.53,0-9.96-4.57-9.79-10.09l1.86-61.28c.16-5.29,4.5-9.5,9.79-9.5h27.12c5.41,0,9.8,4.39,9.8,9.8l1.64,61.28c0,5.41-6.02,9.8-11.44,9.8Z"/>
  <path class="cls-1" d="M1676.54,697.02h280.71c9.05,0,16.38-7.33,16.38-16.38v-93.39c0-9.05-7.33-16.39-16.38-16.39h-162.76c-4.52,0-8.19-3.67-8.19-8.19v-84.38c0-4.52,3.67-8.19,8.19-8.19h113.12c9.06,0,16.4-7.35,16.38-16.41l-.14-93.39c-.01-9.04-7.34-16.36-16.38-16.36h-112.98c-4.52,0-8.19-3.67-8.19-8.19v-61.44c0-4.52,3.67-8.19,8.19-8.19h162.76c9.05,0,16.38-7.34,16.38-16.38v-93.39c0-9.05-7.34-16.38-16.39-16.38h-280.72c-9.05,0-16.38,7.34-16.38,16.38v524.28c0,9.05,7.33,16.38,16.38,16.38Z"/>
  <path class="cls-1" d="M4489.68,697.02h280.71c9.05,0,16.38-7.33,16.38-16.38v-93.39c0-9.05-7.33-16.39-16.38-16.39h-162.76c-4.52,0-8.19-3.67-8.19-8.19v-84.38c0-4.52,3.67-8.19,8.19-8.19h113.12c9.06,0,16.4-7.35,16.38-16.41l-.14-93.39c-.01-9.04-7.34-16.36-16.38-16.36h-112.98c-4.52,0-8.19-3.67-8.19-8.19v-61.44c0-4.52,3.67-8.19,8.19-8.19h162.76c9.05,0,16.38-7.34,16.38-16.38v-93.39c0-9.05-7.34-16.38-16.39-16.38h-280.72c-9.05,0-16.38,7.34-16.38,16.38v524.28c0,9.05,7.33,16.38,16.38,16.38Z"/>
  <path class="cls-1" d="M3667.5,139.98h-353.31c-7.26,0-13.14,5.9-13.11,13.16l.4,99.94c.03,7.22,5.89,13.05,13.11,13.05h104.62c1.81,0,3.28,1.47,3.28,3.28v415.33c0,7.24,5.87,13.11,13.11,13.11h99.94c7.24,0,13.11-5.87,13.11-13.11v-415.33c0-1.81,1.47-3.28,3.28-3.28h115.42c7.23,0,13.1-5.86,13.11-13.09l.16-99.94c.01-7.25-5.86-13.13-13.11-13.13Z"/>
  <path class="cls-1" d="M2445.02,629h234.68c22.27,0,42.55-18.72,42.55-39.28l.02-.8,16.37-410.03c-.19-22.56-18.05-38.92-42.55-38.92h-270.72c-18.7,0-35.8,18.52-36,38.92l16.38,410.58v.24c0,21.66,17.62,39.28,39.28,39.28ZM2539.79,306.13h.06l44.33.08c4.96,0,20.07.03,20.04,17.34l-.17,122.02c-.01,7.08-3.71,12.7-10.15,15.41-4.29,1.8-9,2.06-13.07,2.06h-.17l-37.81-.06c-12.15-.02-20.01-7.82-20.04-19.89l-3.07-119.33c.02-11.69,6.77-17.62,20.05-17.62Z"/>
  <path class="cls-1" d="M1357.75,262.98l-21.48-109.77c-1.5-7.69-8.24-13.24-16.08-13.24h-341.63c-13.57,0-24.58,11-24.58,24.58v507.9c0,13.57,11,24.58,24.57,24.58h311.77c10.62,0,18.43-9.95,15.92-20.26l-22.78-93.39c-1.79-7.34-8.36-12.5-15.92-12.5h-182.5c-2.71,0-4.92-2.2-4.92-4.92v-90.93c0-2.71,2.2-4.92,4.92-4.92h144.4c10.31,0,18.05-9.4,16.08-19.52l-18.22-93.39c-1.5-7.69-8.24-13.25-16.08-13.25h-126.18c-2.71,0-4.92-2.2-4.92-4.92v-51.61c0-2.71,2.2-4.92,4.92-4.92h256.62c10.31,0,18.06-9.41,16.08-19.53Z"/>
  <path class="cls-1" d="M1498.37,153.21c-14.13,72.44-81.33,401.29-81.33,401.29,0,0-32.67-148.9-42.26-197.35-1.52-7.67-8.25-13.19-16.07-13.19h-90.53c-10.63,0-18.44,9.96-15.91,20.28,0,0,63.27,241.65,81.06,314.08,2.7,10.99,12.55,18.7,23.87,18.7h132.96c11.44-.02,19.72-7.9,22.3-19.05,22.48-97.26,110.31-517.93,110.31-517.93,2.37-10.27-5.43-20.07-15.96-20.07h-92.36c-7.83,0-14.57,5.55-16.07,13.23Z"/>
  <path class="cls-1" d="M670.2,494.09h-10.55c-11.95,0-21.09-9.14-21.09-22.85v-82.25c0-13.71,9.14-22.85,21.09-22.85h51.2c3.45,0,6.53-2.16,7.7-5.41l20.98-58.07c1.16-3.2-1.22-6.59-4.62-6.59h-103.32c-11.82,0-21.39-10.4-21.37-23.2.12-82.3.38-77.92.38-104.06,0-21.49,3.22-28.85,23.39-28.85h245.04c24.61,0,42.89,7.73,42.89,38.19,0,16.75-4.22,30.35-9.14,45.58l-46.36,138.09c-.71,2.12.87,4.32,3.11,4.32h5.99c11.65,0,21.09,10.23,21.09,22.85v82.25c0,12.62-9.44,22.85-21.09,22.85h-49.87c-2.13,0-4.02,1.37-4.67,3.4l-31.96,81.92c-1.03,3.18,1.33,6.43,4.67,6.43h114.17c7.77,0,14.06,6.82,14.06,15.23v80.72c0,8.41-6.3,15.23-14.06,15.23h-247.5c-6.77,0-17.98.27-26.07.08-2.47-.06-4.94-.4-7.28-1.2-6.47-2.2-10.73-6.63-14.07-11.34-6.7-9.45-4.03-21.41-.51-32.88,8.27-26.93,57.78-157.6,57.78-157.6Z"/>
  <path class="cls-1" d="M2311.85,139.98h-288.89c-9.05,0-16.38,7.34-16.38,16.38v93.39c0,9.05,7.34,16.38,16.38,16.38h193.61c4.78,0,8.54,4.07,8.17,8.84l-24.06,288.35c-.34,4.26-3.89,7.55-8.17,7.55h-48.22c-4.52,0-8.19-3.67-8.19-8.19v-250.67c0-9.05-7.34-16.38-16.38-16.38h-96.66c-9.05,0-16.38,7.34-16.38,16.38v370.27c0,9.05,7.34,16.38,16.38,16.38h279.18c8.56,0,15.67-6.59,16.33-15.12l35.45-463.82c.58-7.8-.51-15.65-3.22-22.98-5.56-15.02-10.79-27.87-16.11-41.27-3.72-9.35-12.77-15.49-22.83-15.49Z"/>
  <rect class="cls-1" x="2407.08" y="644.64" width="316.31" height="51.82" rx="8" ry="8"/>
  <path class="cls-1" d="M3769.33,629h234.68c22.27,0,42.55-18.72,42.55-39.28l.02-.8,16.37-410.03c-.19-22.56-18.05-38.92-42.55-38.92h-270.72c-18.7,0-35.8,18.52-36,38.92l16.38,410.58v.24c0,21.66,17.62,39.28,39.28,39.28ZM3864.09,306.13h.06l44.33.08c4.96,0,20.07.03,20.04,17.34l-.17,122.02c-.01,7.08-3.71,12.7-10.15,15.41-4.29,1.8-9,2.06-13.07,2.06h-.17l-37.81-.06c-12.15-.02-20.01-7.82-20.04-19.89l-3.07-119.33c.02-11.69,6.77-17.62,20.05-17.62Z"/>
  <rect class="cls-1" x="3731.38" y="644.64" width="316.31" height="51.82" rx="8" ry="8"/>
  <path class="cls-1" d="M2940.99,587.25v93.39c0,9.05,7.33,16.38,16.38,16.38h276.99c9.02,0,16.35-7.29,16.38-16.31l11.42-348.97c.04-9.07-7.31-16.45-16.38-16.45h-172.08c-2.71,0-4.92-2.2-4.92-4.92v-39.32c0-2.71,2.2-4.92,4.92-4.92h172.36c8.97,0,17.9-7.21,18.02-16.17l4.49-93.39c.12-9.13-7.25-16.6-16.38-16.6h-284.98c-13.57,0-24.58,11-24.58,24.58v329.31c0,13.57,11,24.58,24.57,24.58h165.56c2.72,0,4.92,2.21,4.92,4.93l-.12,42.6c0,2.71-2.2,4.9-4.92,4.9h-175.26c-9.05,0-16.38,7.34-16.38,16.38Z"/>
  <path class="cls-1" d="M4436.6,454.72c3.69-20.13-.49-285.61-.49-285.61.57-15.92-12.18-29.13-28.11-29.13h-280.8c-12.86,0-23.45,10.1-24.06,22.94l-4.87,513.43c-.11,11.84,9.46,21.49,21.3,21.49h78.25c11.75,0,21.28-9.5,21.3-21.25.11-58.36,3.88-186.56,3.93-186.83v-.32c.09-2.65,2.27-4.76,4.92-4.76,0,0,9.95-.06,11.7,0l13.22.28c1.6.03,2.95,1.2,3.22,2.78l1.79,10.56c12.79,68.89,39.33,218.03,47.12,266.87,1.27,7.95,8.12,13.79,16.18,13.79h80.84c9.98,0,17.64-8.84,16.22-18.71l-41.62-273.14s54.87-4.6,59.96-32.36ZM4268.29,337.31c-.09,4.6-3.85,8.28-8.45,8.28h-30.78c-4.67,0-8.45-3.78-8.45-8.45v-64.85c0-4.67,3.78-8.45,8.45-8.45h32.08c4.73,0,8.54,3.89,8.45,8.62l-1.3,64.85Z"/>
</svg>